# xmcd
#
# Track frame offsets:
#	150
#	15423
#	33421
#	47494
#	66426
#	84294
#	107422
#	124058
#	144223
#
# Disc length: 2142 seconds
#
# Revision: 1
# Processed by: cddbd v1.5.2PL0 Copyright (c) Steve Scherf et al.
# Submitted via: audiograbber 1.83.01
#
DISCID=66085c09
DTITLE=Lonesome Shack - Wher the Water Drinks Like Wine
DYEAR=2006
DGENRE=Blues
TTITLE0=When I Leave This World
TTITLE1=Broke Down Engine
TTITLE2=You Got Me Spinnin'
TTITLE3=Church Bells
TTITLE4=Roseville
TTITLE5=Back Home
TTITLE6=Bound to Die
TTITLE7=Wher the Water Drinks Like Wine
TTITLE8=I Wonder
EXTD=Ben Todd: Vocals, Guitar, Stompbox
EXTT0=
EXTT1=Willie McTell
EXTT2=
EXTT3=Kid Prince Moore
EXTT4=
EXTT5=
EXTT6=Willie McTell
EXTT7=
EXTT8=
PLAYORDER=
